HIERARCHY
ROOT Hips
{
	OFFSET -14.64140 90.27770 -84.91600
	CHANNELS 6 Xposition Yposition Zposition Zrotation Xrotation Yrotation
	JOINT Spine
	{
		OFFSET 0.00000 13.20850 -1.60436
		CHANNELS 3 Zrotation Xrotation Yrotation
		JOINT Spine1
		{
			OFFSET 0.00000 8.61716 0.00000
			CHANNELS 3 Zrotation Xrotation Yrotation
			JOINT Spine2
			{
				OFFSET 0.00000 8.61717 0.00000
				CHANNELS 3 Zrotation Xrotation Yrotation
				JOINT Spine3
				{
					OFFSET 0.00000 8.61717 0.00000
					CHANNELS 3 Zrotation Xrotation Yrotation
					JOINT Neck
					{
						OFFSET 0.00000 11.07920 1.10792
						CHANNELS 3 Zrotation Xrotation Yrotation
						JOINT Neck1
						{
							OFFSET 0.00000 7.08032 0.00000
							CHANNELS 3 Zrotation Xrotation Yrotation
							JOINT Head
							{
								OFFSET 0.00000 7.08031 0.00000
								CHANNELS 3 Zrotation Xrotation Yrotation
								End site
								{
									OFFSET 0.00000 0.00000 0.00000
								}
							}
						}
					}
					JOINT RightShoulder
					{
						OFFSET -0.01000 7.91373 5.19711
						CHANNELS 3 Zrotation Xrotation Yrotation
						JOINT RightArm
						{
							OFFSET -18.41580 0.00000 0.00000
							CHANNELS 3 Zrotation Xrotation Yrotation
							JOINT RightForeArm
							{
								OFFSET -29.11090 0.00000 0.00000
								CHANNELS 3 Zrotation Xrotation Yrotation
								JOINT RightHand
								{
									OFFSET -24.65040 0.00000 0.00000
									CHANNELS 3 Zrotation Xrotation Yrotation
									JOINT RightHandThumb1
									{
										OFFSET -5.35114 -0.85590 3.97906
										CHANNELS 3 Zrotation Xrotation Yrotation
										JOINT RightHandThumb2
										{
											OFFSET -4.52789 0.00000 0.00000
											CHANNELS 3 Zrotation Xrotation Yrotation
											JOINT RightHandThumb3
											{
												OFFSET -2.46976 0.00000 0.00000
												CHANNELS 3 Zrotation Xrotation Yrotation
												End site
												{
													OFFSET 0.00000 0.00000 0.00000
												}
											}
										}
									}
									JOINT RightHandIndex1
									{
										OFFSET -14.26970 0.00000 2.88139
										CHANNELS 3 Zrotation Xrotation Yrotation
										JOINT RightHandIndex2
										{
											OFFSET -5.48836 0.00000 0.00000
											CHANNELS 3 Zrotation Xrotation Yrotation
											JOINT RightHandIndex3
											{
												OFFSET -3.01859 0.00000 0.00000
												CHANNELS 3 Zrotation Xrotation Yrotation
												End site
												{
													OFFSET 0.00000 0.00000 0.00000
												}
											}
										}
									}
									JOINT RightHandMiddle1
									{
										OFFSET -14.26970 0.00000 -0.09147
										CHANNELS 3 Zrotation Xrotation Yrotation
										JOINT RightHandMiddle2
										{
											OFFSET -6.17441 0.00000 0.00000
											CHANNELS 3 Zrotation Xrotation Yrotation
											JOINT RightHandMiddle3
											{
												OFFSET -3.56743 0.00000 0.00000
												CHANNELS 3 Zrotation Xrotation Yrotation
												End site
												{
													OFFSET 0.00000 0.00000 0.00000
												}
											}
										}
									}
									JOINT RightHandRing1
									{
										OFFSET -12.69180 0.00000 -3.06433
										CHANNELS 3 Zrotation Xrotation Yrotation
										JOINT RightHandRing2
										{
											OFFSET -5.62556 0.00000 0.00000
											CHANNELS 3 Zrotation Xrotation Yrotation
											JOINT RightHandRing3
											{
												OFFSET -3.56744 0.00000 0.00000
												CHANNELS 3 Zrotation Xrotation Yrotation
												End site
												{
													OFFSET 0.00000 0.00000 0.00000
												}
											}
										}
									}
									JOINT RightHandPinky1
									{
										OFFSET -11.11390 0.00000 -6.03719
										CHANNELS 3 Zrotation Xrotation Yrotation
										JOINT RightHandPinky2
										{
											OFFSET -4.52789 0.00000 0.00000
											CHANNELS 3 Zrotation Xrotation Yrotation
											JOINT RightHandPinky3
											{
												OFFSET -2.46976 0.00000 0.00000
												CHANNELS 3 Zrotation Xrotation Yrotation
												End site
												{
													OFFSET 0.00000 0.00000 0.00000
												}
											}
										}
									}
								}
							}
						}
					}
					JOINT LeftShoulder
					{
						OFFSET 0.01000 7.91373 5.19711
						CHANNELS 3 Zrotation Xrotation Yrotation
						JOINT LeftArm
						{
							OFFSET 18.41580 0.00000 0.00000
							CHANNELS 3 Zrotation Xrotation Yrotation
							JOINT LeftForeArm
							{
								OFFSET 29.11090 0.00000 0.00000
								CHANNELS 3 Zrotation Xrotation Yrotation
								JOINT LeftHand
								{
									OFFSET 24.65040 0.00000 0.00000
									CHANNELS 3 Zrotation Xrotation Yrotation
									JOINT LeftHandThumb1
									{
										OFFSET 5.35114 -0.85590 3.97906
										CHANNELS 3 Zrotation Xrotation Yrotation
										JOINT LeftHandThumb2
										{
											OFFSET 4.52789 0.00000 0.00000
											CHANNELS 3 Zrotation Xrotation Yrotation
											JOINT LeftHandThumb3
											{
												OFFSET 2.46977 0.00000 0.00000
												CHANNELS 3 Zrotation Xrotation Yrotation
												End site
												{
													OFFSET 0.00000 0.00000 0.00000
												}
											}
										}
									}
									JOINT LeftHandIndex1
									{
										OFFSET 14.26970 0.00000 2.88139
										CHANNELS 3 Zrotation Xrotation Yrotation
										JOINT LeftHandIndex2
										{
											OFFSET 5.48836 0.00000 0.00000
											CHANNELS 3 Zrotation Xrotation Yrotation
											JOINT LeftHandIndex3
											{
												OFFSET 3.01859 0.00000 0.00000
												CHANNELS 3 Zrotation Xrotation Yrotation
												End site
												{
													OFFSET 0.00000 0.00000 0.00000
												}
											}
										}
									}
									JOINT LeftHandMiddle1
									{
										OFFSET 14.26970 0.00000 -0.09147
										CHANNELS 3 Zrotation Xrotation Yrotation
										JOINT LeftHandMiddle2
										{
											OFFSET 6.17440 0.00000 0.00000
											CHANNELS 3 Zrotation Xrotation Yrotation
											JOINT LeftHandMiddle3
											{
												OFFSET 3.56744 0.00000 0.00000
												CHANNELS 3 Zrotation Xrotation Yrotation
												End site
												{
													OFFSET 0.00000 0.00000 0.00000
												}
											}
										}
									}
									JOINT LeftHandRing1
									{
										OFFSET 12.69180 0.00000 -3.06433
										CHANNELS 3 Zrotation Xrotation Yrotation
										JOINT LeftHandRing2
										{
											OFFSET 5.62556 0.00000 0.00000
											CHANNELS 3 Zrotation Xrotation Yrotation
											JOINT LeftHandRing3
											{
												OFFSET 3.56744 0.00000 0.00000
												CHANNELS 3 Zrotation Xrotation Yrotation
												End site
												{
													OFFSET 0.00000 0.00000 0.00000
												}
											}
										}
									}
									JOINT LeftHandPinky1
									{
										OFFSET 11.11390 0.00000 -6.03719
										CHANNELS 3 Zrotation Xrotation Yrotation
										JOINT LeftHandPinky2
										{
											OFFSET 4.52789 0.00000 0.00000
											CHANNELS 3 Zrotation Xrotation Yrotation
											JOINT LeftHandPinky3
											{
												OFFSET 2.46976 0.00000 0.00000
												CHANNELS 3 Zrotation Xrotation Yrotation
												End site
												{
													OFFSET 0.00000 0.00000 0.00000
												}
											}
										}
									}
								}
							}
						}
					}
					JOINT pCube4
					{
						OFFSET 0.00000 10.91090 1.10792
						CHANNELS 3 Zrotation Xrotation Yrotation
						End site
						{
							OFFSET 0.00000 0.00000 0.00000
						}
					}
				}
			}
		}
	}
	JOINT RightUpLeg
	{
		OFFSET -9.98441 0.00000 0.00000
		CHANNELS 3 Zrotation Xrotation Yrotation
		JOINT RightLeg
		{
			OFFSET 0.00000 -42.11790 0.00000
			CHANNELS 3 Zrotation Xrotation Yrotation
			JOINT RightFoot
			{
				OFFSET 0.00000 -45.00020 -0.00001
				CHANNELS 3 Zrotation Xrotation Yrotation
				JOINT RightForeFoot
				{
					OFFSET 0.00000 -3.74820 0.00000
					CHANNELS 3 Zrotation Xrotation Yrotation
					JOINT RightToeBase
					{
						OFFSET 0.00000 0.06325 14.43120
						CHANNELS 3 Zrotation Xrotation Yrotation
						End site
						{
							OFFSET 0.00000 0.00000 0.00000
						}
					}
				}
			}
		}
	}
	JOINT LeftUpLeg
	{
		OFFSET 9.98441 0.00000 0.00000
		CHANNELS 3 Zrotation Xrotation Yrotation
		JOINT LeftLeg
		{
			OFFSET 0.00000 -42.11800 0.00000
			CHANNELS 3 Zrotation Xrotation Yrotation
			JOINT LeftFoot
			{
				OFFSET 0.00000 -45.00070 0.00000
				CHANNELS 3 Zrotation Xrotation Yrotation
				JOINT LeftForeFoot
				{
					OFFSET 0.00000 -3.74824 0.00000
					CHANNELS 3 Zrotation Xrotation Yrotation
					JOINT LeftToeBase
					{
						OFFSET 0.00000 0.06325 14.43110
						CHANNELS 3 Zrotation Xrotation Yrotation
						End site
						{
							OFFSET 0.00000 0.00000 0.00000
						}
					}
				}
			}
		}
	}
}
MOTION
Frames: 4
Frame Time: 0.050000
-0.004903190387353096 -0.01578446063852909 0.028534023316991505 0.029189398799172556 -0.007044826967591156 0.03376535914315215 4.424320117642083 3.052678021191495 -2.073064298733033 -0.728195966056918 3.578342392140065 0.38946174672665634 -0.7102426897446247 -1.341239570181624 0.6717498066040767 -0.397246452878599 -0.5643977731856183 -0.35865625364076054 0.2588040833512461 13.362134205212074 -2.075347999784585 0.40909862727096774 -0.029699406259880906 -4.594865325514505 1.0581699888743783 -16.053070393267834 -0.36604973986310224 -11.133522242397488 3.750720943123867 -17.087489764692556 78.44169032073168 -4.118610600364995 19.954277254200665 11.499622361408564 3.885955013492953 80.37646746061567 13.172781174608746 -0.2802155917006311 -1.6269978281367925 4.517714508490986 -0.1464647622748188 -1.6174755502892597 0.029957401887748907 0.034454241643381095 -56.26690254474976 -0.040356045929194694 -0.002880398728733997 -56.248790687691326 -38.76957669620505 0.0034943544712086115 0.031039269487804992 -0.013244925946210743 -0.02429455327755789 0.006171669873400539 -0.014024387470513806 -0.03438008409192444 -0.010499453166747759 -36.6698776458362 0.03067167309011298 -0.04186374443293124 0.045646796688219575 0.017688376017682115 -0.004816760496250592 0.01205860723474003 0.012294750691438533 0.04849225560320332 -19.733648238614734 0.04110266732397511 0.0009461434135474543 0.04966141080459203 0.045326115977975916 0.004443902490974635 0.022867562137519597 0.014311649757231404 0.007589552103786691 24.036917633728812 0.021295661184122044 -0.043324391283623157 28.84536652595808 -0.04282307171969144 0.020908213013066633 28.85074666699052 -0.031459107244403345 0.012695357001909149 11.095811722919173 2.6251047093794306 14.498878790969997 -69.95633662956097 12.317717977178573 -22.916613224919047 -5.241144614724573 -1.4362850524723567 -84.3837458186916 -15.42169235979724 -0.38666904891628756 -2.1611354023772082 -0.5024557185601182 0.05486583652384168 -8.159578529321998 -0.0227196344335128 -0.04502315368265408 44.57277968509191 -0.02560997600718645 0.025006140384447022 44.5227157887365 12.504848160834584 0.012365525386199045 0.03151155513747489 0.02670546552219085 -0.03614297939691713 -0.038256861549909885 0.0167766267568677 0.021094292384567972 -0.010677455533421972 11.09393863837812 -0.031817986169976914 0.004918308761877748 -0.006490725462897363 0.014563530066952698 0.0036414414274152287 0.04454816569991573 0.04418694326202138 -0.006948631430259296 4.787632566796335 -0.03821763617304386 0.011965717766122425 0.030226658066966516 -0.027044290807645796 0.02039345961490785 -0.024118972143977364 0.03609425737626038 -0.04173761297800024 -5.555155042994537 0.04139896725746052 0.002536985094519406 -6.705205552046958 -0.03032346077886144 -0.04214748905736747 -6.705782247601663 -0.021510754657613172 0.0030761530022530193 0.03751563534879575 -0.014324043172501633 -0.04253043127644062 8.076174801404921 3.4774415426336582 -19.240778279539512 0.02147588117135326 10.364163264458474 0.050612208942940204 -5.591657699432847 -15.63434725781126 3.1863991690081575 -0.046816093275706426 -0.04076072054712152 -0.013626680973105649 0.014538366973471053 4.677715479402512 0.029544977154373337 12.439438243882032 -8.26769028397219 6.882211772683618 0.027912644087653322 46.39273998870106 -0.042701750742672774 -4.292466964191921 -14.752436359916974 -3.87232321682538 -0.04958423802354618 -0.04450705825819235 -0.02703325399110301 -0.02338895839896811 -10.743497051191378 -0.027400002788807026 
0.0013935777253836746 0.018139193140365103 -0.03379488595782027 -0.033033706194519556 0.026626211600890355 -0.02290214134383732 4.541403371054953 2.775513745498685 -2.126191470980644 -0.7199731557849683 3.5692155985186726 0.38162181403645856 -0.6832170874270002 -1.3475007950628688 0.6407325443097556 -0.451176138592402 -0.5097906194904629 -0.2855402505471007 0.17391293651966905 13.734259276534708 -1.7582932175122787 0.4073513395402784 0.19049407656651154 -3.8371991630409004 1.0218766513840165 -15.715512425117616 -0.3162523020642018 -11.763304030674076 3.908080804687605 -16.90464130989836 78.79938793120587 -5.0976087524240405 24.257796571682416 13.525175477930162 3.2963021109730217 84.66537286589515 12.327270276212065 -0.28416958220406463 -1.50652744863095 4.536464723514511 -0.11974284937811554 -1.6014103131178081 0.03189291374815376 -0.017647094704648463 -56.231396626370405 -0.019192304216704502 -0.013049544720366436 -56.19488685221545 -38.73997016693779 0.012522498522233335 0.012549096616308363 -0.026465795178679058 0.027004925456062225 0.003924303590705458 -0.011656435635610262 -0.0191803607256784 -0.0357213322755675 -36.65837749722382 -0.0024007411115775368 0.007967592313408474 -0.019501199360100408 -0.014817528615761424 0.022932622842851202 0.04606058199416186 0.02887555806611162 0.02409148617410577 -19.767682477690073 0.02314309392635988 -0.034023134503685354 0.009493921272385901 -0.005416852199878374 -0.019475942906204104 -0.02910836436556106 0.0071051886956215275 0.016602027087111036 24.028687885883187 -0.026712571865406144 -0.02054947393783167 28.899383175536627 0.017236372007347286 -0.02834584546186276 28.911696383168763 -0.015089777026129006 -0.03625308233972705 11.930590739583277 2.7033980601873377 14.343308405934884 -70.02583626317843 12.076822815317923 -27.553203333119622 -4.004632136531428 -3.150341592423827 -89.3837353687186 -13.559558002656814 0.0934656374222583 -3.1574501506357002 -0.48243910331407186 0.11030611025205622 -8.121945400648436 0.037438152169204486 0.03186247097410989 44.55258159146725 -0.024792548528501927 -0.007290710390118774 44.55461252183592 12.49842543313 -0.0010273065382822915 0.022877177343703405 -0.02010904158495787 -0.023909339342982287 0.0341814556315479 0.009382810454780736 -0.008692374920910016 0.02006639977935091 11.070735484117366 0.029508229173733823 0.02201710059561228 0.03235866373803598 0.026334880606100397 -0.025878847854216857 -0.0340823519083965 0.0147651151028275 0.016750065187879543 4.804702806699001 -0.013391696140337146 0.007684971644261446 0.04971340273926934 0.032172590652225434 0.03368910816665547 -0.04111507545712229 -0.0439471515511489 -0.04109777184988043 -5.574748729624432 -0.0066604622573490264 0.03959783818346279 -6.715117323160875 -0.008406672920146279 0.048024329512228126 -6.764950804003234 -0.03146256021066847 0.02060651236103111 0.013463983412743625 -0.03505628920617324 0.04080461900279049 8.001988613420492 3.444013496820768 -19.175693567943846 -0.00048172839693946703 10.41834422159043 -0.028193792282768592 -5.5889665633206915 -15.705027567146892 3.2121621828300406 0.03191330043065662 -0.004999373084091866 -0.028328662330960132 0.012813480197870977 4.666706199267774 -0.016747513454519674 12.416038533456677 -8.27190672779618 6.894028975012289 -0.009906869976536548 46.35551318751982 -0.008854463157571307 -4.28140089710869 -14.797543170795194 -3.8087136642987742 0.005599509257359426 -0.011838137936694254 0.002088206486670618 0.013910719924685651 -10.743769615255184 0.013605598555163821 
-0.016821157337949626 -0.005788773264357942 -0.004924112323692216 0.044464808315717065 0.0049902163569562515 -0.00576498756050281 4.651603746487962 2.559223717347639 -2.0889959765040373 -0.6769029192134071 3.5399006371251343 0.36412337779846987 -0.61609958013867 -1.427818301175008 0.5996731450828222 -0.6018845818275043 -0.5301771926996146 -0.35654404328979883 0.08059072442904987 13.962119649503414 -1.4401861916789174 0.4337760248647253 0.3165395698966207 -3.0894027453425976 0.915534876817711 -15.473938814015273 -0.26235291303135055 -12.070864450225555 4.018875861716059 -16.64599509472168 78.88995693835508 -5.491724883204055 27.127001142908192 14.177074345884925 2.7657119805964663 87.06969410479567 11.649006280766947 -0.29619059678823717 -1.276993244327358 4.575454041260191 -0.1416058123753166 -1.5967475257919725 -0.006012548610389579 0.01582059084440746 -56.20521968116225 -0.02860666361699375 -0.007780719612190966 -56.23048392361262 -38.77986530174817 -0.027417517079361863 0.00746537960307107 -0.042916966653854687 0.001841254110990454 0.016568932465494988 -0.04506431135254933 -0.009866247246713412 0.04580765276512327 -36.733883823419205 -0.04275407880873395 0.00512623891679555 -0.03879733936423016 0.030868350005700332 -0.001572010857312181 -0.0212754698642341 -0.045912799952710664 -0.030512590176979125 -19.717029402866274 0.016609644993696323 0.011434235556756751 -0.0191300288660608 0.016814239860438458 -0.0033054098479369932 0.007163435211843582 -0.015656464169949758 -0.005004191984891323 24.036641945372523 -0.046328676722343046 0.015932979108333144 28.827069874629345 0.005838107483780638 0.002638980434950803 28.865688012131375 -0.0059626941893252015 -0.010821481456633615 12.618973969463049 2.838097573264232 14.146724612418192 -70.22615192000599 11.71519830546598 -31.833389374676894 -2.1736535223812243 -4.561541817319976 -92.74745478841703 -11.73227987906878 0.9504747115725529 -4.364951987646327 -0.4949122868471605 0.08341878769644959 -8.146170317837532 -0.025698468209316573 0.006381052450077249 44.61396955368899 -0.017073060522950066 -0.045258763459173186 44.59047414836978 12.490174330934984 0.0235160910205354 0.01607711325551169 -0.0005547887843646542 -0.04846712377366102 0.006532675387538971 -0.005369968179954472 -0.04456600879754143 0.039524584623127024 11.152881542114189 -0.0452453462708988 -0.027044085230424026 -0.019889344535288154 -0.006090141659076206 -0.04814842128837878 0.045384774295004905 -0.00987025552930358 -0.0013977839087003028 4.765174276085285 0.02521174041438493 0.0014795189076685607 -0.0032258130723490184 -0.019994598678643855 -0.002235642668058657 0.009139964382043262 0.03402984365546724 0.01233735760548706 -5.5704867446437145 0.013968907581365982 0.005880581351829388 -6.709351008230999 0.004036446696762822 0.0022672819709328787 -6.7540921155392555 0.011949604333897508 0.03496092711364073 -0.04913437509469852 0.012319699891836705 -0.04827305380848616 8.03497083771082 3.4813230569557585 -19.232508693299653 -0.009993503601785672 10.435845634278742 0.04854964640693682 -5.5904621111808686 -15.628984470361333 3.2063192277746926 0.02774718824022448 0.01968798277170796 -0.023091366678369443 0.02521368883394085 4.741836034121092 0.0029920378422501888 12.454972394476146 -8.237646193120327 6.929457471972252 0.01285971472086673 46.37166532839773 -0.02351008598890367 -4.3272600507231225 -14.760574477221178 -3.8153113021929665 0.04715143017000105 0.009482539082784304 0.016308461671580576 -0.01508053578346876 -10.757881521980813 0.011677505663652199 
-0.02036743599544047 -0.023901018656172855 0.04741164166542266 -0.012109634083353351 -0.00423160575820623 -0.024742289683433998 4.640527465966751 2.4761197476032715 -2.139488595794824 -0.6766097421669736 3.474601388394156 0.38720977409286045 -0.6507619887084326 -1.4818646634747175 0.35218400519415144 -0.5360357337893851 -0.5912916250173053 -0.38290688857858857 -0.05604595455775478 14.254241718111011 -1.2702422884146654 0.4998704129422485 0.46898159192578237 -2.3727701053191237 0.9271691460683105 -15.246057672776024 -0.19325956487716073 -12.168005607718818 4.126244617977586 -16.36445200830627 79.07884511212158 -4.927431689415825 28.992619085299705 13.430188870132778 2.3269016193712586 88.81441353122922 11.031530888280852 -0.2037157588405943 -1.0195241287022412 4.549958168787471 -0.10569581514571885 -1.6406676139456238 0.020417800775550714 0.03260043285583868 -56.269888614253816 -0.004249160057206543 -0.0026700522354814213 -56.21454658830938 -38.78221745925078 -0.030058349206481823 0.01289572051126084 0.0035254334069949904 0.04944163640641177 0.04047144155278678 0.009734100431576772 -0.024589354543121125 0.012675647088985224 -36.70738886291045 0.035731294514070415 0.01683523868732117 -0.02403617345693759 -0.045123234688851474 -0.021196504422031314 0.04635835533578205 0.004654616389584069 -0.03370102483214045 -19.74136720492905 -0.04997363266775679 0.03616903826923593 -0.030240205530350443 0.029865578860601677 0.019154114700657674 -0.02437593329727293 -0.014308884601604885 0.04987930487693143 24.018353051184643 0.028447649058405036 -0.007175236896706673 28.865066097184645 -0.017287060271054245 -0.028774080997312462 28.85141299616802 -0.027556675203737804 0.03107318999510347 13.113488716082706 2.9930357169327424 13.963712629915374 -70.63852773574331 11.761298712987347 -36.24417889139378 0.5102280858165135 -5.8777093913985805 -95.14568409026018 -9.993997454752474 2.128102651197679 -5.598743022723581 -0.5162687262178086 0.1122250929618818 -8.087174805688079 0.005016305163325344 -0.0411510427656645 44.6072620928125 -0.04404959728420911 -0.04600965931948589 44.617153223130245 12.46213710680965 0.038810157889230056 -0.01257536957196476 0.00735834810705782 -0.023212978686037108 0.008275664062266354 -0.03166101219451031 0.04998744346349239 -0.0011120097026267484 11.084793449918664 0.023279449134853292 0.021953466159021336 0.005621681041810309 -0.005392803729320776 -0.019931585552870994 -0.049829477636309814 -0.025112934854524212 -0.04677915985563716 4.7534200217811735 0.013824634948550739 -0.01099035954461015 0.030719085894689805 -0.0438790469095349 -0.011900413431381393 0.03132850430823118 0.04452480135010459 0.0019659752443418515 -5.6285797703490585 -0.014559130297320507 -0.013941678428469544 -6.71945246330455 -0.022124337888269893 -0.022349285542894903 -6.699471423402762 0.03198038852724282 -0.0448982130972542 -0.034963585176868976 -0.03528606363939289 -0.0386300431900456 8.088305135690034 3.4743718229865292 -19.258194329183876 -0.014737889929459166 10.411369629828616 0.04080133597917568 -5.573979489668213 -15.675091697205609 3.2225628295191013 0.02952961886233706 0.007731551328590597 0.018771949233470375 -1.4335679515113232e-05 4.737497269162101 -0.01260803407526111 12.469041244092121 -8.240651699965076 6.910804491701635 -0.01137653805950853 46.419260183489456 0.0015782077218241093 -4.336303611285719 -14.732834876095682 -3.871837552394594 0.010837643311816834 0.04494993585336729 -0.0441190077921223 0.03556047761856713 -10.762138020271532 -0.045975778667396716 
